<svg xmlns="http://www.w3.org/2000/svg" viewBox="0 0 512 512"><defs><clipPath id="a" clipPathUnits="userSpaceOnUse"><path d="M125 290.646h30v30h-30zm25 5.05a20 20 0 0 0-20 20 20 20 0 0 0 20 20 20 20 0 0 0 20-20 20 20 0 0 0-20-20" class="powerclip" style="opacity:1;fill:#f59e0b;stroke-width:10"/></clipPath></defs><rect width="512" height="512" fill="#1e293b" rx="96"/><text x="256" y="340" fill="#f8fafc" font-family="serif" font-size="280" font-weight="bold" text-anchor="middle">O</text><path stroke="#f59e0b" stroke-linecap="round" stroke-width="16" d="M140 376.784h232" style="stroke-width:9;stroke-dasharray:none;stroke-miterlimit:2.5"/><path d="M175.712 356.088h65.521v31.216h-65.521z" style="fill:#f59e0b;fill-opacity:1;stroke-width:.728271;stroke-dasharray:none" transform="rotate(6.63)scale(.99926 1)skewY(-2.21)"/><path d="M130 295.646h20v20h-20z" clip-path="url(#a)" style="fill:#f59e0b;fill-opacity:1;stroke-width:10;stroke-dasharray:none" transform="matrix(.63575 .01272 -.01986 .9927 119.76 85.854)"/><path stroke="#f59e0b" stroke-linecap="round" stroke-width="16" d="M335.566 369.542v14.124" style="stroke-width:2.4;stroke-linecap:butt;stroke-dasharray:none"/></svg>